#!OML:ASF F:\VICON\USERDATA\INSTALL\rory3\rory3.ASF
:FULLY-SPECIFIED
:DEGREES
1434
root -1.40532 14.5083 -16.31 -390.542 -62.596 388.553
lowerback 18.2408 -2.94538 -11.1901
upperback -0.0232903 -6.60275 -2.30852
thorax -9.30681 -2.72557 5.43298
lowerneck -13.0494 -5.88865 -4.60724
upperneck 18.6949 -7.89369 2.87694
head 8.25121 -3.84185 0.830465
rclavicle -6.86304e-014 -6.04305e-014
rhumerus 21.4981 3.79168 -44.4741
rradius 29.9425
rwrist -45.037
rhand -10.4673 10.9291
rfingers 7.12502
rthumb 15.5336 -18.467
lclavicle -6.86304e-014 -6.04305e-014
lhumerus 31.8862 -52.3715 42.8392
lradius 71.3039
lwrist 26.5771
lhand -6.13527 17.7582
lfingers 7.12502
lthumb 19.7023 46.7797
rfemur -31.0792 3.76582 16.1482
rtibia 70.6431
rfoot -32.6896 -6.64528
rtoes 15.2762
lfemur -17.8023 23.8552 -7.26341
ltibia 47.4656
lfoot -28.2538 18.6418
ltoes 44.8045
1435
root -1.42403 14.51 -16.3166 -390.624 -62.1746 388.833
lowerback 18.2482 -3.02095 -11.5683
upperback -0.0924465 -6.78796 -2.28896
thorax -9.31524 -2.79213 5.70545
lowerneck -12.753 -5.79401 -4.68004
upperneck 18.3544 -7.72728 2.80586
head 8.07765 -3.77951 0.851489
rclavicle -8.67447e-014 -3.61788e-014
rhumerus 21.3626 5.73576 -41.5039
rradius 31.8569
rwrist -47.3745
rhand -11.1733 10.4638
rfingers 7.12502
rthumb 14.8535 -18.9838
lclavicle -8.67447e-014 -3.61788e-014
lhumerus 32.411 -53.1025 42.8702
lradius 71.3176
lwrist 26.1124
lhand -6.28316 17.5315
lfingers 7.12502
lthumb 19.5601 46.5676
rfemur -31.1766 3.50888 15.8105
rtibia 70.6973
rfoot -32.8839 -6.61682
rtoes 15.7539
lfemur -18.0209 23.7685 -7.69875
ltibia 47.4627
lfoot -28.254 18.3914
ltoes 45.2134
1436
root -1.43321 14.4981 -16.3324 -389.146 -62.4405 387.156
lowerback 18.364 -3.06145 -10.6124
upperback 0.0164899 -6.63047 -2.1981
thorax -9.37275 -2.75762 5.25235
lowerneck -12.9514 -5.8717 -4.29303
upperneck 18.6477 -7.90815 2.72624
head 8.19815 -3.84347 0.732653
rclavicle 1.04113e-014 -3.10104e-014
rhumerus 22.2765 3.84735 -42.4668
rradius 31.0365
rwrist -45.1786
rhand -10.4855 11.0394
rfingers 7.12502
rthumb 15.5161 -18.358
lclavicle 1.04113e-014 -3.10104e-014
lhumerus 34.242 -53.9906 41.4624
lradius 71.4509
lwrist 26.1968
lhand -7.36658 18.4982
lfingers 7.12502
lthumb 18.5182 47.6368
rfemur -31.0206 3.67148 16.8902
rtibia 70.5736
rfoot -33.0578 -6.45597
rtoes 17.2463
lfemur -18.3336 24.2386 -6.5371
ltibia 47.8942
lfoot -27.3153 18.534
ltoes 44.9738
1437
root -1.44923 14.4933 -16.3447 -389.116 -62.1882 387.245
lowerback 18.4186 -3.06428 -10.96
upperback -0.0183545 -6.70116 -2.05009
thorax -9.37478 -2.76857 5.62634
lowerneck -12.4454 -5.5429 -3.39356
upperneck 18.039 -7.44276 1.8176
head 7.81416 -3.65705 0.368867
rclavicle 6.01324e-015 -1.70955e-014
rhumerus 22.4884 5.31744 -40.0146
rradius 32.5059
rwrist -47.3435
rhand -10.7951 10.5783
rfingers 7.12502
rthumb 15.2179 -18.8421
lclavicle 6.01324e-015 -1.70955e-014
lhumerus 34.9706 -54.7433 41.2119
lradius 71.6178
lwrist 25.6396
lhand -7.97516 19.0527
lfingers 7.12502
lthumb 17.9327 48.246
rfemur -31.0999 3.60431 16.8187
rtibia 70.6537
rfoot -33.1089 -7.05653
rtoes 16.0465
lfemur -18.4875 24.2414 -6.68907
ltibia 47.8862
lfoot -27.319 18.1503
ltoes 45.8216
1438
root -1.46759 14.5039 -16.3535 -389.093 -61.8275 387.497
lowerback 18.3102 -3.16754 -11.1007
upperback -0.065073 -6.86265 -2.1051
thorax -9.33168 -2.8422 5.67102
lowerneck -12.9835 -5.65362 -4.70025
upperneck 18.4907 -7.53695 2.87924
head 8.16066 -3.67915 0.892609
rclavicle -5.54609e-014 -2.38542e-015
rhumerus 22.7495 5.79595 -38.4487
rradius 33.4726
rwrist -48.3732
rhand -10.4258 10.4373
rfingers 7.12502
rthumb 15.5736 -18.9557
lclavicle -5.54609e-014 -2.38542e-015
lhumerus 35.7801 -55.3799 40.6938
lradius 71.7457
lwrist 25.4456
lhand -9.31279 19.7689
lfingers 7.12502
lthumb 16.6453 49.0751
rfemur -31.2327 3.39797 16.5284
rtibia 70.6692
rfoot -33.2752 -6.71814
rtoes 17.4001
lfemur -18.7017 23.9474 -7.13969
ltibia 47.631
lfoot -27.1611 18.5244
ltoes 45.5598
1439
root -1.47957 14.5033 -16.3645 -388.796 -61.6237 387.377
lowerback 18.3524 -3.1147 -10.6671
upperback -0.130234 -6.73134 -2.27346
thorax -9.51987 -2.78927 5.22893
lowerneck -12.9069 -5.82333 -4.55659
upperneck 18.4845 -7.77446 2.72983
head 8.1421 -3.79718 0.795202
rclavicle 3.53837e-014 -1.39149e-014
rhumerus 22.6156 5.56695 -37.59
rradius 34.0712
rwrist -48.2683
rhand -10.5132 10.6274
rfingers 7.12502
rthumb 15.4894 -18.7721
lclavicle 3.53837e-014 -1.39149e-014
lhumerus 37.4057 -56.5054 39.2117
lradius 72.284
lwrist 25.647
lhand -9.59593 20.5824
lfingers 7.12502
lthumb 16.3727 49.9113
rfemur -31.3753 3.19983 16.5289
rtibia 70.6972
rfoot -33.3846 -6.77725
rtoes 17.123
lfemur -18.895 24.0194 -7.20618
ltibia 47.5277
lfoot -27.3796 17.8356
ltoes 46.5528
1440
root -1.49551 14.5001 -16.3797 -388.382 -61.5959 386.872
lowerback 18.7143 -3.53647 -11.1623
upperback -0.298789 -7.37511 -1.59817
thorax -9.65548 -3.03069 6.42406
lowerneck -12.6942 -5.05642 -5.03234
upperneck 18.2806 -6.49521 2.15058
head 7.98394 -3.28263 0.835663
rclavicle -4.20927e-014 -1.19271e-014
rhumerus 24.0692 7.95895 -34.8747
rradius 35.6711
rwrist -49.7147
rhand -11.1297 10.278
rfingers 7.12502
rthumb 14.8956 -19.1664
lclavicle -4.20927e-014 -1.19271e-014
lhumerus 35.2752 -56.1018 41.4581
lradius 72.1504
lwrist 24.4719
lhand -9.24524 20.2617
lfingers 7.12502
lthumb 16.7104 49.5625
rfemur -31.2185 3.32268 16.8947
rtibia 70.6395
rfoot -33.3423 -7.1709
rtoes 16.838
lfemur -18.8828 24.1022 -6.86224
ltibia 47.5302
lfoot -26.9655 17.923
ltoes 46.7786
